<svg width="152" height="166" viewBox="0 0 152 166" fill="none" xmlns="http://www.w3.org/2000/svg">
<path d="M131.386 31.7674C128.166 28.2461 124.343 25.4528 120.135 23.547C115.927 21.6413 111.416 20.6603 106.861 20.6603C102.306 20.6603 97.7962 21.6413 93.5882 23.547C89.3802 25.4528 85.5569 28.2461 82.3369 31.7674L75.6541 39.0718L68.9713 31.7674C62.467 24.658 53.6453 20.664 44.4468 20.664C35.2483 20.664 26.4266 24.658 19.9223 31.7674C13.4179 38.8768 9.76386 48.5191 9.76385 58.5733C9.76385 68.6274 13.4179 78.2698 19.9223 85.3792L75.6541 146.295L131.386 85.3792C134.608 81.8596 137.163 77.6807 138.907 73.0812C140.65 68.4818 141.548 63.5519 141.548 58.5733C141.548 53.5946 140.65 48.6648 138.907 44.0653C137.163 39.4659 134.608 35.287 131.386 31.7674Z" fill="#D9D9D9" stroke="black" stroke-width="5" stroke-linecap="round" stroke-linejoin="round"/>
<path d="M75 145.5L88 99.5L62.5 83L71 58.5H98.5L75 83L96.5 95L75 145.5Z" fill="black" stroke="black" stroke-width="5" stroke-linejoin="round"/>
</svg>
