<svg width="183" height="170" viewBox="0 0 183 170" fill="none" xmlns="http://www.w3.org/2000/svg">
<path d="M34.4435 108V128.957L46.8288 142.46L66.3869 142.828L94.932 116.466L179 38.8276L147.057 4L62.9887 81.638L34.4435 108Z" fill="#D9D9D9"/>
<path d="M34.2764 139.533C27.4217 141.768 13.9681 148.459 14.992 157.342C16.2719 168.446 36.4521 171.031 38.6681 159.491C40.4409 150.258 36.479 142.339 34.2764 139.533Z" fill="#D9D9D9"/>
<path d="M26.9921 135.838C17.7733 139.137 15.3387 141.943 12.2775 145.887C8.25148 151.074 9.10957 159.424 9.10957 159.424C9.10957 159.424 1.55012 153.002 3.24867 146.966C4.94721 140.929 16.3014 132.677 26.9921 135.838Z" fill="#D9D9D9"/>
<path d="M34.4435 108V128.957L46.8288 142.46L66.3869 142.828M34.4435 108L66.3869 142.828M34.4435 108L62.9887 81.638M66.3869 142.828L94.932 116.466M94.932 116.466L179 38.8276L147.057 4L62.9887 81.638M94.932 116.466L62.9887 81.638M34.2764 139.533C27.4217 141.768 13.9681 148.459 14.992 157.342C16.2719 168.446 36.4521 171.031 38.6681 159.491C40.4409 150.258 36.479 142.339 34.2764 139.533ZM26.9921 135.838C17.7733 139.137 15.3387 141.943 12.2775 145.887C8.25148 151.074 9.10957 159.424 9.10957 159.424C9.10957 159.424 1.55012 153.002 3.24867 146.966C4.94721 140.929 16.3014 132.677 26.9921 135.838Z" stroke="black" stroke-width="5"/>
</svg>
