<svg width="319" height="459" viewBox="0 0 319 459" fill="none" xmlns="http://www.w3.org/2000/svg">
<path d="M138.462 148.79L112.534 83.9081L123.264 81.4851L110.001 72.6906L126.095 69.0561L114.122 56.8947L208.85 4.23536C211.383 4.85939 217.072 7.50455 219.564 13.0928C222.056 18.6811 217.057 25.4485 214.246 28.1336L143.165 65.2013L134.575 74.83L138.871 77.9608L133.474 85.843L144.55 89.4929L136.118 97.5483L156.996 144.605L153.629 159.205L139.784 154.643L138.462 148.79Z" fill="white" stroke="black" stroke-width="5"/>
<rect x="31.3373" y="176.057" width="227" height="287" rx="10.5" transform="rotate(-12.7251 31.3373 176.057)" fill="#FF7A68" stroke="black" stroke-width="5"/>
<path d="M46.7255 201.072L52.8136 228.031L71.2048 243.046L104.112 235.615L114.266 214.154L108.447 188.384L89.8763 172.576L56.9695 180.007L46.7255 201.072Z" fill="#111111" stroke="white" stroke-width="5"/>
<path d="M125.736 183.23L131.824 210.19L150.215 225.204L183.122 217.773L193.277 196.312L187.457 170.542L168.887 154.735L135.98 162.166L125.736 183.23Z" fill="#111111" stroke="white" stroke-width="5"/>
<path d="M64.1271 278.131L70.2152 305.091L88.6065 320.105L121.513 312.674L131.668 291.214L125.848 265.443L107.278 249.636L74.3711 257.067L64.1271 278.131Z" fill="#111111" stroke="white" stroke-width="5"/>
<line x1="274.461" y1="412.819" x2="212.344" y2="137.744" stroke="#FB4C4C" stroke-width="10"/>
</svg>
