<svg width="264" height="436" viewBox="0 0 264 436" fill="none" xmlns="http://www.w3.org/2000/svg">
<path d="M135.255 134.626L129.471 64.9945L140.44 65.8212L130.336 53.527L146.789 54.767L138.904 39.6317L244.902 17.0337C247.141 18.3725 251.806 22.5682 252.551 28.6414C253.297 34.7146 246.535 39.7206 243.061 41.4645L164.239 56.0822L153.205 62.7719L156.395 67.0236L148.926 72.9792L158.447 79.7137L148.024 84.9452L154.201 136.054L146.705 149.027L134.804 140.609L135.255 134.626Z" fill="white" stroke="black" stroke-width="5"/>
<rect x="24.8417" y="129.314" width="227" height="287" rx="10.5" transform="rotate(4.30995 24.8417 129.314)" fill="#B968FF" stroke="black" stroke-width="5"/>
<path d="M32.2263 157.74L30.1492 185.3L43.335 205.044L76.9751 207.579L92.9711 190.035L94.9565 163.69L81.8319 143.136L48.1918 140.601L32.2263 157.74Z" fill="#111111" stroke="white" stroke-width="5"/>
<line x1="188.436" y1="426.949" x2="209.629" y2="145.747" stroke="#B027FF" stroke-width="10"/>
</svg>
